#!OML:ASF H:\MichaelJackson\Top Level 1\Subject 1\Session 1\male.ASF
:FULLY-SPECIFIED
:DEGREES
371
root -0.58236 15.96 -13.3011 11.8142 6.87896 -16.4374
lowerback 5.71834 7.58521 7.7932
upperback 0.898316 10.6836 4.23648
thorax -1.64645 5.28975 -0.585732
lowerneck -10.124 -6.14954 2.00539
upperneck 0.0565677 -8.4543 1.18355
head 1.69001 -4.18048 -0.339129
rclavicle 7.46436e-014 9.26337e-014
rhumerus -33.8463 0.755185 -87.7744
rradius 51.2274
rwrist -12.703
rhand -31.4482 -32.646
rfingers 7.12502
rthumb -4.71593 297.427
lclavicle 7.46436e-014 9.26337e-014
lhumerus -50.3589 -0.745603 90.9119
lradius 55.4578
lwrist 16.0146
lhand -25.2819 4.1077
lfingers 7.12502
lthumb 1.23934 34.0839
rfemur -10.0051 -8.24914 31.1998
rtibia 32.7714
rfoot -27.2067 -21.886
rtoes -19.679
lfemur -52.0543 1.74656 6.48749
ltibia 28.9026
lfoot -0.188651 4.1814
ltoes 27.0414
372
root -0.560728 15.9545 -13.2335 12.1693 6.856 -16.4333
lowerback 5.61525 7.64125 7.78323
upperback 0.870093 10.7465 4.17682
thorax -1.60512 5.32192 -0.629405
lowerneck -10.0921 -6.14658 2.09309
upperneck -0.0542277 -8.45911 1.23127
head 1.64622 -4.18332 -0.334647
rclavicle -2.28602e-014 -5.84427e-014
rhumerus -33.9917 1.53403 -87.6335
rradius 50.3246
rwrist -12.0105
rhand -31.1273 -32.3399
rfingers 7.12502
rthumb -4.40602 297.726
lclavicle -2.28602e-014 -5.84427e-014
lhumerus -50.1127 -0.844914 90.6254
lradius 56.9613
lwrist 17.8171
lhand -25.8629 4.34756
lfingers 7.12502
lthumb 0.67812 34.3262
rfemur -9.93386 -8.12302 31.1603
rtibia 32.4393
rfoot -27.2404 -22.0218
rtoes -20.043
lfemur -52.5887 2.42198 6.05899
ltibia 29.55
lfoot 0.335804 3.58209
ltoes 27.6533
373
root -0.538621 15.9509 -13.1649 12.5607 6.80825 -16.4507
lowerback 5.46443 7.71138 7.75501
upperback 0.821231 10.8245 4.13129
thorax -1.56394 5.36164 -0.644614
lowerneck -10.0874 -6.14887 2.15378
upperneck -0.085329 -8.47096 1.30943
head 1.63599 -4.18755 -0.319855
rclavicle -4.57205e-014 -3.18055e-015
rhumerus -34.1404 2.28427 -87.492
rradius 49.5585
rwrist -11.0604
rhand -30.5384 -31.5086
rfingers 7.12502
rthumb -3.83735 298.546
lclavicle -4.57205e-014 -3.18055e-015
lhumerus -50.0452 -1.25864 90.4887
lradius 58.6062
lwrist 19.4465
lhand -25.8497 4.60289
lfingers 7.12502
lthumb 0.690876 34.5815
rfemur -9.86479 -7.98945 31.1435
rtibia 32.0306
rfoot -27.2406 -22.1323
rtoes -20.4049
lfemur -53.1069 2.91025 5.79821
ltibia 30.1412
lfoot 0.871243 3.22239
ltoes 28.2276
374
root -0.516444 15.9491 -13.0968 12.9769 6.74814 -16.4781
lowerback 5.29902 7.78861 7.7068
upperback 0.756984 10.9114 4.09696
thorax -1.53603 5.40534 -0.637684
lowerneck -10.1258 -6.15817 2.18294
upperneck -0.0475355 -8.4918 1.40895
head 1.65835 -4.19434 -0.297239
rclavicle 1.02871e-013 -2.0276e-014
rhumerus -34.2991 2.91752 -87.341
rradius 48.9983
rwrist -10.0008
rhand -29.81 -30.3113
rfingers 7.12502
rthumb -3.134 299.732
lclavicle 1.02871e-013 -2.0276e-014
lhumerus -50.1239 -1.90422 90.4574
lradius 60.3366
lwrist 20.7796
lhand -25.337 4.74904
lfingers 7.12502
lthumb 1.18609 34.7255
rfemur -9.81043 -7.86669 31.1368
rtibia 31.5791
rfoot -27.2059 -22.2065
rtoes -20.7251
lfemur -53.618 3.24411 5.65879
ltibia 30.6978
lfoot 1.38653 3.02659
ltoes 28.7167
375
root -0.494469 15.9481 -13.0297 13.3869 6.6892 -16.4972
lowerback 5.15715 7.8663 7.63443
upperback 0.689894 11.001 4.07221
thorax -1.53036 5.44985 -0.612738
lowerneck -10.2039 -6.17902 2.16954
upperneck 0.034294 -8.5259 1.52748
head 1.705 -4.20621 -0.265131
rclavicle 4.72114e-014 3.69739e-014
rhumerus -34.478 3.35278 -87.164
rradius 48.6978
rwrist -9.00296
rhand -29.0532 -28.9475
rfingers 7.12502
rthumb -2.40309 301.086
lclavicle 4.72114e-014 3.69739e-014
lhumerus -50.3107 -2.70533 90.4941
lradius 62.0985
lwrist 21.7764
lhand -24.5042 4.76994
lfingers 7.12502
lthumb 1.99036 34.7404
rfemur -9.74231 -7.7632 31.1172
rtibia 31.1082
rfoot -27.1648 -22.2267
rtoes -20.9972
lfemur -54.1117 3.44961 5.58552
ltibia 31.2435
lfoot 1.85009 2.91556
ltoes 29.079
376
root -0.473413 15.9476 -12.9643 13.7861 6.64454 -16.4954
lowerback 5.05255 7.94656 7.53619
upperback 0.619618 11.0972 4.04575
thorax -1.55287 5.49682 -0.582601
lowerneck -10.2955 -6.21991 2.13722
upperneck 0.118349 -8.58522 1.65102
head 1.75591 -4.23033 -0.230076
rclavicle -5.13858e-014 6.36111e-015
rhumerus -34.6805 3.5401 -86.9638
rradius 48.6733
rwrist -8.21213
rhand -28.4343 -27.5549
rfingers 7.12502
rthumb -1.8054 302.473
lclavicle -5.13858e-014 6.36111e-015
lhumerus -50.5722 -3.6321 90.5715
lradius 63.8646
lwrist 22.4735
lhand -23.4805 4.71927
lfingers 7.12502
lthumb 2.97907 34.6782
rfemur -9.67121 -7.69458 31.0751
rtibia 30.6384
rfoot -27.1158 -22.2022
rtoes -21.2286
lfemur -54.6027 3.56911 5.52861
ltibia 31.7956
lfoot 2.23705 2.81876
ltoes 29.2911
377
root -0.453628 15.9468 -12.9007 14.1577 6.63937 -16.4643
lowerback 4.99372 8.00912 7.40704
upperback 0.561987 11.1726 4.02918
thorax -1.59674 5.53322 -0.532427
lowerneck -10.3978 -6.2705 2.06773
upperneck 0.179308 -8.65279 1.77149
head 1.80285 -4.25896 -0.190178
rclavicle 7.73272e-014 5.32743e-014
rhumerus -34.886 3.52745 -86.7421
rradius 48.9097
rwrist -7.7158
rhand -27.8832 -26.4548
rfingers 7.12502
rthumb -1.27306 303.569
lclavicle 7.73272e-014 5.32743e-014
lhumerus -50.8705 -4.59288 90.6716
lradius 65.595
lwrist 22.9506
lhand -22.3835 4.46827
lfingers 7.12502
lthumb 4.03844 34.4097
rfemur -9.57904 -7.66813 31.0066
rtibia 30.1738
rfoot -27.0683 -22.1543
rtoes -21.4635
lfemur -55.0958 3.62122 5.45296
ltibia 32.367
lfoot 2.53265 2.69056
ltoes 29.3739
378
root -0.435415 15.9449 -12.839 14.5095 6.67103 -16.3985
lowerback 4.95798 8.0547 7.23187
upperback 0.524113 11.2246 4.02872
thorax -1.64626 5.55865 -0.444181
lowerneck -10.4893 -6.32709 1.96072
upperneck 0.186299 -8.7217 1.87985
head 1.83143 -4.28972 -0.146265
rclavicle -1.26626e-013 -4.49253e-014
rhumerus -35.072 3.35747 -86.4837
rradius 49.3691
rwrist -7.52837
rhand -27.533 -25.6263
rfingers 7.12502
rthumb -0.934905 304.396
lclavicle -1.26626e-013 -4.49253e-014
lhumerus -51.1658 -5.5266 90.7738
lradius 67.2604
lwrist 23.2336
lhand -21.3076 4.20063
lfingers 7.12502
lthumb 5.07733 34.1198
rfemur -9.47273 -7.66909 30.9077
rtibia 29.7185
rfoot -27.0375 -22.0932
rtoes -21.6913
lfemur -55.6019 3.64655 5.33021
ltibia 32.9582
lfoot 2.74199 2.51393
ltoes 29.3188
